<?xml version="1.0" encoding="UTF-8"?>
<!--
  Splash (docs/design-system): the Mount Panorama circuit from the icon face in white, with the chequered
  start/finish line on Pit Straight, shown on the dial-navy splash colour set in the .csproj.
  Sized to stay inside Android 12's circular splash-icon mask.
-->
<svg xmlns="http://www.w3.org/2000/svg" width="456" height="456" viewBox="0 0 456 456">
  <g transform="translate(73.7 83.5) scale(0.24)" fill="none" stroke-linejoin="round" stroke-linecap="round">
    <path stroke="#FFFFFF" stroke-width="34"
          d="M400 1195 L640 1195 Q662 1195 662 1170 L662 590 Q662 530 700 528 C760 525 850 590 890 597 Q922 602 905 570 C872 520 870 450 900 400 C940 340 990 300 985 240 C980 180 960 118 890 115 L660 125 C640 125 630 100 610 95 C590 88 582 102 565 96 C550 88 545 76 522 80 C502 84 490 76 470 72 C440 68 422 42 405 28 C388 12 368 10 358 32 Q345 62 345 125 L345 745 L302 872 Q296 888 306 900 L343 940 L345 1170 Q345 1195 370 1195 Z" />
  </g>
  <!-- Chequered start/finish line across Pit Straight -->
  <g transform="translate(194.5 362.3)">
    <rect x="0" y="0" width="4" height="4" fill="#101A2E" /><rect x="4" y="0" width="4" height="4" fill="#FFFFFF" />
    <rect x="0" y="4" width="4" height="4" fill="#FFFFFF" /><rect x="4" y="4" width="4" height="4" fill="#101A2E" />
    <rect x="0" y="8" width="4" height="4" fill="#101A2E" /><rect x="4" y="8" width="4" height="4" fill="#FFFFFF" />
    <rect x="0" y="12" width="4" height="4" fill="#FFFFFF" /><rect x="4" y="12" width="4" height="4" fill="#101A2E" />
  </g>
</svg>
